<?xml version="1.0" encoding="utf-8"?><svg viewBox="0 0 57 57" xmlns="http://www.w3.org/2000/svg" xmlns:xlink="http://www.w3.org/1999/xlink"><style>:root>svg{display:none}:root>svg:target{display:block}</style><svg fill="none" viewBox="0 0 36 36" id="badge" xmlns="http://www.w3.org/2000/svg"><path d="M13.5 18l3 3 6-6" stroke="#248C99" stroke-width="3.667" stroke-linecap="round" stroke-linejoin="round"/><path d="M18 4.5A18 18 0 0030.75 9 18 18 0 0118 31.5 18 18 0 015.25 9 18 18 0 0018 4.5" stroke="#248C99" stroke-width="3.667" stroke-linecap="round" stroke-linejoin="round"/></svg><svg fill="none" viewBox="0 0 57 57" id="logo" xmlns="http://www.w3.org/2000/svg"><path d="M23.219 19.587c-.142 1.056.1 2.747 1.534 2.928.12.015.24.021.36.018v.12h-4.569v-.12h.262c1.297 0 2.111-1.91 2.274-2.924l.28-2.106c-.249.104-.51.178-.778.22-.837.145-1.699.035-2.472-.317a3.884 3.884 0 01-2.192-3.363 4.313 4.313 0 011.682-3.625c.935-.677 1.873-.776 2.931-.758h2.75l4.846 10.962L34.255 9.66h2.693v.102a5.097 5.097 0 00-.537.018c-1.098.12-1.058.936-.938 1.871l1.206 8.424c.181 1.113.32 2.148 1.475 2.407.144.032.292.045.44.039v.12h-5.066v-.12h.242c1.613 0 1.396-1.505 1.206-2.903L33.77 11.38l-4.291 11.392h-.16l-4.487-10.267c-.519-1.074-1.01-2.23-2.132-2.578a3.53 3.53 0 00-3.034.601 4.297 4.297 0 00-1.655 3.541c.06 1.312.838 2.708 2.135 3.243.735.291 1.55.305 2.295.04a2.756 2.756 0 001.872-2.13c.16-.993-.1-2.05-1.055-2.567a2.45 2.45 0 00-2.614.32l-.04-.04c.905-.902 2.193-1.273 3.372-.698a2.645 2.645 0 011.414 2.774 3.18 3.18 0 01-1.894 2.436l-.277 2.14zm1.254-12.144A10.562 10.562 0 0135.307 9.04h-.705a10.108 10.108 0 00-12.062 0h-.712a10.35 10.35 0 012.645-1.61v.013zm13.823 5.595a10.509 10.509 0 010 8.183c-.037.087-.076.174-.115.262l-.368-.247.082-.186a10.055 10.055 0 00-1.62-10.46v-.148l.115-.03h.277a10.31 10.31 0 011.629 2.626zM36.037 24.56a10.552 10.552 0 01-11.497 2.302 10.523 10.523 0 01-4.735-3.881 10.487 10.487 0 01-1.767-5.854c0-.229 0-.46.021-.686l.058.084.018.027.123.166.021.027.133.156.024.027.04.042v.157a9.972 9.972 0 00.792 3.91c.194.457.421.9.679 1.324v.584l.015.027v.024l.036.048.042.045.021.021.025.021.024.018.093.015h.079l.057.024h.23a10.088 10.088 0 008.007 3.94 10.106 10.106 0 008.01-3.94h.543c-.331.46-.7.892-1.104 1.291l.012.081zM30.541 1.805a3.758 3.758 0 00-2.046-.602c-.754 0-1.456.221-2.046.602h-1.792A4.97 4.97 0 0128.495 0a4.97 4.97 0 013.839 1.805H30.54zM4.8 5.034a3.82 3.82 0 00-.73-.07C1.824 4.964 0 6.933 0 9.176c0 .594.128 1.16.358 1.668l.892-1.166a2.869 2.869 0 01-.044-.502c0-1.586 1.258-2.925 2.726-3.005L4.8 5.034zM7.076 6.367a4.18 4.18 0 00-1.353-1.029l1.353 1.029zM52.152 5.13c.202-.024.408-.03.617-.016C55.117 5.27 57 7.436 57 9.73c0 .538-.08 1.018-.229 1.441l-.98-1.282c.002-.052.003-.105.003-.16 0-1.56-1.204-3.035-2.691-3.356l-.95-1.243z" fill="#0067A0"/><path d="M52.249 5.104c-1.38.153-2.77.22-4.162.2a34.73 34.73 0 01-11.133-1.73C34.79 2.847 32.926 1.955 31.36.898v.005h-1.994c1.9 1.556 4.3 2.823 7.199 3.8a35.912 35.912 0 0011.513 1.79c1.234-.043 2.182-.065 2.946-.082a54.093 54.093 0 002.17-.075l-.945-1.232zM33.417 33.45c.247 0 .356.147.356.3v2.377c0 .175-.109.301-.356.301h-.356V33.45h.356zM22.44 40.499c0-.085-.056-.16-.19-.16h-.195v.819h.196c.133 0 .19-.067.19-.154V40.5zM31.834 40.34c.132 0 .193.074.193.159v.45c0 .088-.06.163-.193.163h-.196v-.773h.196z" fill="#0067A0"/><path fill-rule="evenodd" clip-rule="evenodd" d="M55.782 9.714c-.82 7.505-2.86 13.98-5.229 19.943H6.471C4.068 23.597 2.29 16.736 1.133 9.075L.16 10.257c2.227 16.283 6.885 26.82 14.755 36.268 4.24 5.084 8.66 8.548 13.259 10.393h.03l.033.015a.76.76 0 00.61.003l.08-.045.185-.084c4.865-2.156 9.366-5.79 13.503-10.902 7.043-8.702 11.771-20.323 14.185-34.864l-1.017-1.327zm-30.99 28.492h-2.11l-.015-3.143-.603 2.247h-1.442l-.603-2.208v3.104h-2.11v-6.534h2.897l.543 2.852.549-2.852h2.895v6.534zm3.061-1.916h2.301v1.916h-4.686v-6.534h4.59v1.934h-2.205v.476h2.111v1.733h-2.11v.475zm2.835 1.916h2.765c1.833 0 2.738-.68 2.738-2.106v-2.208c0-1.426-.902-2.22-2.738-2.22h-2.765v6.534zm6.037 0V31.66l2.385.012v6.534h-2.385zm-16.187 3.598c0-.647-.244-.884-.808-1.05l-.041-.012c-.352-.103-.526-.153-.526-.243 0-.094.142-.13.362-.13.257.013.512.05.763.109l.135-1.032a4.806 4.806 0 00-1.088-.127c-.947 0-1.402.49-1.402 1.255 0 .635.28.845.796.999l.06.018.092.027c.285.084.397.118.397.195 0 .09-.14.109-.347.109a3.594 3.594 0 01-.872-.133l-.15 1.014c.415.115.844.173 1.275.172 1.016 0 1.354-.464 1.354-1.17zm18.572 0c0-.647-.244-.884-.808-1.05l-.041-.012c-.353-.103-.526-.153-.526-.243 0-.094.142-.13.362-.13.257.013.512.05.763.109l.135-1.032a4.806 4.806 0 00-1.088-.127c-.947 0-1.402.49-1.402 1.255 0 .635.28.845.796.999l.152.045c.285.084.396.118.396.195 0 .09-.138.109-.346.109a3.625 3.625 0 01-.872-.133l-.15 1.014c.415.115.844.173 1.275.172 1.016 0 1.354-.464 1.354-1.17zM20.76 42.92v-3.55l1.49-.008c.995 0 1.483.43 1.483 1.203v.403c0 .776-.488 1.15-1.483 1.15h-.196v.802H20.76zm6.378-3.55h-1.282v1.243h-.567v-1.242h-1.293v3.55h1.293v-1.204h.567v1.203h1.282v-3.55zm1.67 2.504h1.249v1.046h-2.542v-3.55h2.5v1.047h-1.207v.26h1.14v.94h-1.14v.257zm1.535-2.504v3.55l1.294.012v-.902h.1l.349.902h1.375l-.555-1.155a1.017 1.017 0 00.413-.902v-.301c0-.773-.491-1.203-1.486-1.203h-1.49zm4.743 2.504h1.249l.009 1.046h-2.542v-3.55h2.49v1.047h-1.206v.26h1.14v.94h-1.14v.257z" fill="#0067A0"/><path d="M25.631.889c-1.565 1.036-3.416 1.918-5.551 2.646l-.006-.018a34.404 34.404 0 01-11.13 1.769 38.48 38.48 0 01-4.463-.272L3.577 6.11c1.779.25 3.574.377 5.373.381a35.449 35.449 0 0011.516-1.835v.006c2.871-.977 5.261-2.231 7.17-3.76H25.63V.889z" fill="#0067A0"/></svg></svg>